<svg width="439" height="382" viewBox="0 0 439 382" fill="none" xmlns="http://www.w3.org/2000/svg">
<path d="M10.9592 0H36.9875L43.837 12.3669V34.3525L54.7962 46.7194L58.906 34.3525L65.7555 17.8633L76.7147 34.3525L71.2351 42.5971L65.7555 61.8345L71.2351 79.6978L84.9342 101.683L113.702 138.784L134.251 147.029L152.06 131.914V116.799L164.389 112.676L178.088 126.417H202.746L226.034 131.914V147.029L242.473 156.647V171.763V192.374L230.144 201.993L264.392 214.36L297.27 201.993L324.668 181.381L347.956 222.604L363.025 201.993L375.354 214.36L383.574 232.223C391.336 231.765 408.232 230.024 413.712 226.727C419.191 223.429 428.781 222.604 432.89 222.604L426.041 248.712L421.931 262.453L406.862 270.698L394.533 278.942L383.574 292.683L390.423 313.295H413.712C417.821 313.295 427.411 310.547 432.89 299.554C438.37 288.561 435.173 310.547 432.89 322.914L437 333.906L421.931 343.525L406.862 353.144V364.137H437L426.041 382L371.245 364.137L383.574 353.144L371.245 340.777L347.956 343.525L332.887 340.777L356.176 327.036L345.216 313.295L313.708 322.914V313.295C319.188 306.424 330.695 292.683 332.887 292.683H178.088L164.389 299.554L152.06 287.187H134.251L108.223 327.036L58.906 322.914L49.3166 340.777H0L17.8088 327.036L27.3981 299.554L36.9875 287.187L17.8088 278.942L23.2884 270.698V248.712L17.8088 240.468V226.727L36.9875 214.36L23.2884 201.993L36.9875 192.374L27.3981 181.381V167.64L23.2884 126.417H36.9875V112.676L17.8088 97.5611L23.2884 46.7194L6.84953 26.1079L10.9592 0Z" fill="white" fill-opacity="0.6"/>
<path d="M12.9592 0H38.9875L45.837 12.3669V34.3525L56.7962 46.7194L60.906 34.3525L67.7555 17.8633L78.7147 34.3525L73.2351 42.5971L67.7555 61.8345L73.2351 79.6978L86.9342 101.683L115.702 138.784L136.251 147.029L154.06 131.914V116.799L166.389 112.676L180.088 126.417H204.746L228.034 131.914V147.029L244.473 156.647V171.763V192.374L232.144 201.993L266.392 214.36L299.27 201.993L326.668 181.381L349.956 222.604L365.025 201.993L377.354 214.36L385.574 232.223C393.336 231.765 410.232 230.024 415.712 226.727C421.191 223.429 430.781 222.604 434.89 222.604L428.041 248.712L423.931 262.453L408.862 270.698L396.533 278.942L385.574 292.683L392.423 313.295H415.712C419.821 313.295 429.411 310.547 434.89 299.554C440.37 288.561 437.173 310.547 434.89 322.914L439 333.906L423.931 343.525L408.862 353.144V364.137H439L428.041 382L373.245 364.137L385.574 353.144L373.245 340.777L349.956 343.525L334.887 340.777L358.176 327.036L347.216 313.295L315.708 322.914V313.295C321.188 306.424 332.695 292.683 334.887 292.683H180.088L166.389 299.554L154.06 287.187H136.251L110.223 327.036L60.906 322.914L51.3166 340.777H2L19.8088 327.036L29.3981 299.554L38.9875 287.187L19.8088 278.942L25.2884 270.698V248.712L19.8088 240.468V226.727L38.9875 214.36L25.2884 201.993L38.9875 192.374L29.3981 181.381V167.64L25.2884 126.417H38.9875V112.676L19.8088 97.5611L25.2884 46.7194L8.84953 26.1079L12.9592 0Z" fill="#343A40" fill-opacity="0.3"/>
<path fill-rule="evenodd" clip-rule="evenodd" d="M24.815 248L25.2884 248.712V270.698L19.8088 278.942L38.9875 287.187L29.3981 299.554L19.8088 327.036L2 340.777H51.3166L60.906 322.914L110.223 327.036L136.251 287.187H154.06L166.389 299.554L180.088 292.683H334.887C332.695 292.683 321.188 306.424 315.708 313.295V322.914L347.216 313.295L358.176 327.036L334.887 340.777L349.956 343.525L373.245 340.777L385.574 353.144L373.245 364.137L428.041 382L439 364.137H408.862V353.144L423.931 343.525L439 333.906L434.89 322.914C437.173 310.547 440.37 288.561 434.89 299.554C429.411 310.547 419.821 313.295 415.712 313.295H392.423L385.574 292.683L396.533 278.942L408.862 270.698L423.931 262.453L428.041 248.712L428.228 248H24.815Z" fill="white" fill-opacity="0.6"/>
</svg>
